<svg width="168" height="244" viewBox="0 0 168 244" fill="none" xmlns="http://www.w3.org/2000/svg">
<g clip-path="url(#clip0_126_44)">
<rect x="0.5" y="0.5" width="167" height="167" rx="4.5" fill="white" stroke="url(#paint0_linear_126_44)"/>
<path d="M4.78906 208.336L7.75781 202.625H9.46094L5.53906 209.758V214H4.03906V209.758L0.117188 202.625H1.83594L4.78906 208.336ZM9.80469 209.695C9.80469 208.867 9.96615 208.122 10.2891 207.461C10.6172 206.799 11.0703 206.289 11.6484 205.93C12.2318 205.57 12.8958 205.391 13.6406 205.391C14.7917 205.391 15.7214 205.789 16.4297 206.586C17.1432 207.383 17.5 208.443 17.5 209.766V209.867C17.5 210.69 17.3411 211.43 17.0234 212.086C16.7109 212.737 16.2604 213.245 15.6719 213.609C15.0885 213.974 14.4167 214.156 13.6562 214.156C12.5104 214.156 11.5807 213.758 10.8672 212.961C10.1589 212.164 9.80469 211.109 9.80469 209.797V209.695ZM11.2578 209.867C11.2578 210.805 11.474 211.557 11.9062 212.125C12.3438 212.693 12.9271 212.977 13.6562 212.977C14.3906 212.977 14.974 212.69 15.4062 212.117C15.8385 211.539 16.0547 210.732 16.0547 209.695C16.0547 208.768 15.8333 208.018 15.3906 207.445C14.9531 206.867 14.3698 206.578 13.6406 206.578C12.9271 206.578 12.3516 206.862 11.9141 207.43C11.4766 207.997 11.2578 208.81 11.2578 209.867ZM24.5312 213.164C23.9688 213.826 23.1432 214.156 22.0547 214.156C21.1536 214.156 20.4661 213.896 19.9922 213.375C19.5234 212.849 19.2865 212.073 19.2812 211.047V205.547H20.7266V211.008C20.7266 212.289 21.2474 212.93 22.2891 212.93C23.3932 212.93 24.1276 212.518 24.4922 211.695V205.547H25.9375V214H24.5625L24.5312 213.164ZM32.2266 206.844C32.0078 206.807 31.7708 206.789 31.5156 206.789C30.5677 206.789 29.9245 207.193 29.5859 208V214H28.1406V205.547H29.5469L29.5703 206.523C30.0443 205.768 30.7161 205.391 31.5859 205.391C31.8672 205.391 32.0807 205.427 32.2266 205.5V206.844ZM38.2422 214V206.664H36.9062V205.547H38.2422V204.68C38.2422 203.773 38.4844 203.073 38.9688 202.578C39.4531 202.083 40.138 201.836 41.0234 201.836C41.3568 201.836 41.6875 201.88 42.0156 201.969L41.9375 203.141C41.6927 203.094 41.4323 203.07 41.1562 203.07C40.6875 203.07 40.3255 203.208 40.0703 203.484C39.8151 203.755 39.6875 204.146 39.6875 204.656V205.547H41.4922V206.664H39.6875V214H38.2422ZM48.3125 214C48.2292 213.833 48.1615 213.536 48.1094 213.109C47.4375 213.807 46.6354 214.156 45.7031 214.156C44.8698 214.156 44.1849 213.922 43.6484 213.453C43.1172 212.979 42.8516 212.38 42.8516 211.656C42.8516 210.776 43.1849 210.094 43.8516 209.609C44.5234 209.12 45.4661 208.875 46.6797 208.875H48.0859V208.211C48.0859 207.706 47.9349 207.305 47.6328 207.008C47.3307 206.706 46.8854 206.555 46.2969 206.555C45.7812 206.555 45.349 206.685 45 206.945C44.651 207.206 44.4766 207.521 44.4766 207.891H43.0234C43.0234 207.469 43.1719 207.062 43.4688 206.672C43.7708 206.276 44.1771 205.964 44.6875 205.734C45.2031 205.505 45.7682 205.391 46.3828 205.391C47.3568 205.391 48.1198 205.635 48.6719 206.125C49.224 206.609 49.5104 207.279 49.5312 208.133V212.023C49.5312 212.799 49.6302 213.417 49.8281 213.875V214H48.3125ZM45.9141 212.898C46.3672 212.898 46.7969 212.781 47.2031 212.547C47.6094 212.312 47.9036 212.008 48.0859 211.633V209.898H46.9531C45.1823 209.898 44.2969 210.417 44.2969 211.453C44.2969 211.906 44.4479 212.26 44.75 212.516C45.0521 212.771 45.4401 212.898 45.9141 212.898ZM54.4609 212.039L56.5547 205.547H58.0312L55 214H53.8984L50.8359 205.547H52.3125L54.4609 212.039ZM58.9141 209.695C58.9141 208.867 59.0755 208.122 59.3984 207.461C59.7266 206.799 60.1797 206.289 60.7578 205.93C61.3411 205.57 62.0052 205.391 62.75 205.391C63.901 205.391 64.8307 205.789 65.5391 206.586C66.2526 207.383 66.6094 208.443 66.6094 209.766V209.867C66.6094 210.69 66.4505 211.43 66.1328 212.086C65.8203 212.737 65.3698 213.245 64.7812 213.609C64.1979 213.974 63.526 214.156 62.7656 214.156C61.6198 214.156 60.6901 213.758 59.9766 212.961C59.2682 212.164 58.9141 211.109 58.9141 209.797V209.695ZM60.3672 209.867C60.3672 210.805 60.5833 211.557 61.0156 212.125C61.4531 212.693 62.0365 212.977 62.7656 212.977C63.5 212.977 64.0833 212.69 64.5156 212.117C64.9479 211.539 65.1641 210.732 65.1641 209.695C65.1641 208.768 64.9427 208.018 64.5 207.445C64.0625 206.867 63.4792 206.578 62.75 206.578C62.0365 206.578 61.4609 206.862 61.0234 207.43C60.5859 207.997 60.3672 208.81 60.3672 209.867ZM73.6406 213.164C73.0781 213.826 72.2526 214.156 71.1641 214.156C70.263 214.156 69.5755 213.896 69.1016 213.375C68.6328 212.849 68.3958 212.073 68.3906 211.047V205.547H69.8359V211.008C69.8359 212.289 70.3568 212.93 71.3984 212.93C72.5026 212.93 73.237 212.518 73.6016 211.695V205.547H75.0469V214H73.6719L73.6406 213.164ZM81.3359 206.844C81.1172 206.807 80.8802 206.789 80.625 206.789C79.6771 206.789 79.0339 207.193 78.6953 208V214H77.25V205.547H78.6562L78.6797 206.523C79.1536 205.768 79.8255 205.391 80.6953 205.391C80.9766 205.391 81.1901 205.427 81.3359 205.5V206.844ZM84.2422 214H82.7969V205.547H84.2422V214ZM82.6797 203.305C82.6797 203.07 82.75 202.872 82.8906 202.711C83.0365 202.549 83.25 202.469 83.5312 202.469C83.8125 202.469 84.026 202.549 84.1719 202.711C84.3177 202.872 84.3906 203.07 84.3906 203.305C84.3906 203.539 84.3177 203.734 84.1719 203.891C84.026 204.047 83.8125 204.125 83.5312 204.125C83.25 204.125 83.0365 204.047 82.8906 203.891C82.75 203.734 82.6797 203.539 82.6797 203.305ZM88.5234 203.5V205.547H90.1016V206.664H88.5234V211.906C88.5234 212.245 88.5938 212.5 88.7344 212.672C88.875 212.839 89.1146 212.922 89.4531 212.922C89.6198 212.922 89.849 212.891 90.1406 212.828V214C89.7604 214.104 89.3906 214.156 89.0312 214.156C88.3854 214.156 87.8984 213.961 87.5703 213.57C87.2422 213.18 87.0781 212.625 87.0781 211.906V206.664H85.5391V205.547H87.0781V203.5H88.5234ZM95.3047 214.156C94.1589 214.156 93.2266 213.781 92.5078 213.031C91.7891 212.276 91.4297 211.268 91.4297 210.008V209.742C91.4297 208.904 91.5885 208.156 91.9062 207.5C92.2292 206.839 92.6771 206.323 93.25 205.953C93.8281 205.578 94.4531 205.391 95.125 205.391C96.224 205.391 97.0781 205.753 97.6875 206.477C98.2969 207.201 98.6016 208.237 98.6016 209.586V210.188H92.875C92.8958 211.021 93.138 211.695 93.6016 212.211C94.0703 212.721 94.6641 212.977 95.3828 212.977C95.8932 212.977 96.3255 212.872 96.6797 212.664C97.0339 212.456 97.3438 212.18 97.6094 211.836L98.4922 212.523C97.7839 213.612 96.7214 214.156 95.3047 214.156ZM95.125 206.578C94.5417 206.578 94.0521 206.792 93.6562 207.219C93.2604 207.641 93.0156 208.234 92.9219 209H97.1562V208.891C97.1146 208.156 96.9167 207.589 96.5625 207.188C96.2083 206.781 95.7292 206.578 95.125 206.578ZM109.469 214C109.385 213.833 109.318 213.536 109.266 213.109C108.594 213.807 107.792 214.156 106.859 214.156C106.026 214.156 105.341 213.922 104.805 213.453C104.273 212.979 104.008 212.38 104.008 211.656C104.008 210.776 104.341 210.094 105.008 209.609C105.68 209.12 106.622 208.875 107.836 208.875H109.242V208.211C109.242 207.706 109.091 207.305 108.789 207.008C108.487 206.706 108.042 206.555 107.453 206.555C106.938 206.555 106.505 206.685 106.156 206.945C105.807 207.206 105.633 207.521 105.633 207.891H104.18C104.18 207.469 104.328 207.062 104.625 206.672C104.927 206.276 105.333 205.964 105.844 205.734C106.359 205.505 106.924 205.391 107.539 205.391C108.513 205.391 109.276 205.635 109.828 206.125C110.38 206.609 110.667 207.279 110.688 208.133V212.023C110.688 212.799 110.786 213.417 110.984 213.875V214H109.469ZM107.07 212.898C107.523 212.898 107.953 212.781 108.359 212.547C108.766 212.312 109.06 212.008 109.242 211.633V209.898H108.109C106.339 209.898 105.453 210.417 105.453 211.453C105.453 211.906 105.604 212.26 105.906 212.516C106.208 212.771 106.596 212.898 107.07 212.898ZM114.32 205.547L114.367 206.609C115.013 205.797 115.857 205.391 116.898 205.391C118.685 205.391 119.586 206.398 119.602 208.414V214H118.156V208.406C118.151 207.797 118.01 207.346 117.734 207.055C117.464 206.763 117.039 206.617 116.461 206.617C115.992 206.617 115.581 206.742 115.227 206.992C114.872 207.242 114.596 207.57 114.398 207.977V214H112.953V205.547H114.32ZM123.352 214H121.906V205.547H123.352V214ZM121.789 203.305C121.789 203.07 121.859 202.872 122 202.711C122.146 202.549 122.359 202.469 122.641 202.469C122.922 202.469 123.135 202.549 123.281 202.711C123.427 202.872 123.5 203.07 123.5 203.305C123.5 203.539 123.427 203.734 123.281 203.891C123.135 204.047 122.922 204.125 122.641 204.125C122.359 204.125 122.146 204.047 122 203.891C121.859 203.734 121.789 203.539 121.789 203.305ZM127.031 205.547L127.07 206.484C127.69 205.755 128.526 205.391 129.578 205.391C130.76 205.391 131.565 205.844 131.992 206.75C132.273 206.344 132.638 206.016 133.086 205.766C133.539 205.516 134.073 205.391 134.688 205.391C136.542 205.391 137.484 206.372 137.516 208.336V214H136.07V208.422C136.07 207.818 135.932 207.367 135.656 207.07C135.38 206.768 134.917 206.617 134.266 206.617C133.729 206.617 133.284 206.779 132.93 207.102C132.576 207.419 132.37 207.849 132.312 208.391V214H130.859V208.461C130.859 207.232 130.258 206.617 129.055 206.617C128.107 206.617 127.458 207.021 127.109 207.828V214H125.664V205.547H127.031ZM144.922 214C144.839 213.833 144.771 213.536 144.719 213.109C144.047 213.807 143.245 214.156 142.312 214.156C141.479 214.156 140.794 213.922 140.258 213.453C139.727 212.979 139.461 212.38 139.461 211.656C139.461 210.776 139.794 210.094 140.461 209.609C141.133 209.12 142.076 208.875 143.289 208.875H144.695V208.211C144.695 207.706 144.544 207.305 144.242 207.008C143.94 206.706 143.495 206.555 142.906 206.555C142.391 206.555 141.958 206.685 141.609 206.945C141.26 207.206 141.086 207.521 141.086 207.891H139.633C139.633 207.469 139.781 207.062 140.078 206.672C140.38 206.276 140.786 205.964 141.297 205.734C141.812 205.505 142.378 205.391 142.992 205.391C143.966 205.391 144.729 205.635 145.281 206.125C145.833 206.609 146.12 207.279 146.141 208.133V212.023C146.141 212.799 146.24 213.417 146.438 213.875V214H144.922ZM142.523 212.898C142.977 212.898 143.406 212.781 143.812 212.547C144.219 212.312 144.513 212.008 144.695 211.633V209.898H143.562C141.792 209.898 140.906 210.417 140.906 211.453C140.906 211.906 141.057 212.26 141.359 212.516C141.661 212.771 142.049 212.898 142.523 212.898ZM149.977 214H148.531V202H149.977V214ZM0.75 231.703C0.75 230.385 1.05469 229.339 1.66406 228.562C2.27344 227.781 3.08073 227.391 4.08594 227.391C5.11719 227.391 5.92188 227.755 6.5 228.484L6.57031 227.547H7.89062V235.797C7.89062 236.891 7.5651 237.753 6.91406 238.383C6.26823 239.013 5.39844 239.328 4.30469 239.328C3.69531 239.328 3.09896 239.198 2.51562 238.938C1.93229 238.677 1.48698 238.32 1.17969 237.867L1.92969 237C2.54948 237.766 3.30729 238.148 4.20312 238.148C4.90625 238.148 5.45312 237.951 5.84375 237.555C6.23958 237.159 6.4375 236.602 6.4375 235.883V235.156C5.85938 235.823 5.07031 236.156 4.07031 236.156C3.08073 236.156 2.27865 235.758 1.66406 234.961C1.05469 234.164 0.75 233.078 0.75 231.703ZM2.20312 231.867C2.20312 232.82 2.39844 233.57 2.78906 234.117C3.17969 234.659 3.72656 234.93 4.42969 234.93C5.34115 234.93 6.01042 234.516 6.4375 233.688V229.828C5.99479 229.021 5.33073 228.617 4.44531 228.617C3.74219 228.617 3.19271 228.891 2.79688 229.438C2.40104 229.984 2.20312 230.794 2.20312 231.867ZM13.5859 236.156C12.4401 236.156 11.5078 235.781 10.7891 235.031C10.0703 234.276 9.71094 233.268 9.71094 232.008V231.742C9.71094 230.904 9.86979 230.156 10.1875 229.5C10.5104 228.839 10.9583 228.323 11.5312 227.953C12.1094 227.578 12.7344 227.391 13.4062 227.391C14.5052 227.391 15.3594 227.753 15.9688 228.477C16.5781 229.201 16.8828 230.237 16.8828 231.586V232.188H11.1562C11.1771 233.021 11.4193 233.695 11.8828 234.211C12.3516 234.721 12.9453 234.977 13.6641 234.977C14.1745 234.977 14.6068 234.872 14.9609 234.664C15.3151 234.456 15.625 234.18 15.8906 233.836L16.7734 234.523C16.0651 235.612 15.0026 236.156 13.5859 236.156ZM13.4062 228.578C12.8229 228.578 12.3333 228.792 11.9375 229.219C11.5417 229.641 11.2969 230.234 11.2031 231H15.4375V230.891C15.3958 230.156 15.1979 229.589 14.8438 229.188C14.4896 228.781 14.0104 228.578 13.4062 228.578ZM20.5234 225.5V227.547H22.1016V228.664H20.5234V233.906C20.5234 234.245 20.5938 234.5 20.7344 234.672C20.875 234.839 21.1146 234.922 21.4531 234.922C21.6198 234.922 21.849 234.891 22.1406 234.828V236C21.7604 236.104 21.3906 236.156 21.0312 236.156C20.3854 236.156 19.8984 235.961 19.5703 235.57C19.2422 235.18 19.0781 234.625 19.0781 233.906V228.664H17.5391V227.547H19.0781V225.5H20.5234ZM28.7188 233.758C28.7188 233.367 28.5703 233.065 28.2734 232.852C27.9818 232.633 27.4688 232.445 26.7344 232.289C26.0052 232.133 25.4245 231.945 24.9922 231.727C24.5651 231.508 24.2474 231.247 24.0391 230.945C23.8359 230.643 23.7344 230.284 23.7344 229.867C23.7344 229.174 24.026 228.589 24.6094 228.109C25.1979 227.63 25.9479 227.391 26.8594 227.391C27.8177 227.391 28.5938 227.638 29.1875 228.133C29.7865 228.628 30.0859 229.26 30.0859 230.031H28.6328C28.6328 229.635 28.4635 229.294 28.125 229.008C27.7917 228.721 27.3698 228.578 26.8594 228.578C26.3333 228.578 25.9219 228.693 25.625 228.922C25.3281 229.151 25.1797 229.451 25.1797 229.82C25.1797 230.169 25.3177 230.432 25.5938 230.609C25.8698 230.786 26.3672 230.956 27.0859 231.117C27.8099 231.279 28.3958 231.471 28.8438 231.695C29.2917 231.919 29.6224 232.19 29.8359 232.508C30.0547 232.82 30.1641 233.203 30.1641 233.656C30.1641 234.411 29.862 235.018 29.2578 235.477C28.6536 235.93 27.8698 236.156 26.9062 236.156C26.2292 236.156 25.6302 236.036 25.1094 235.797C24.5885 235.557 24.1797 235.224 23.8828 234.797C23.5911 234.365 23.4453 233.898 23.4453 233.398H24.8906C24.9167 233.883 25.1094 234.268 25.4688 234.555C25.8333 234.836 26.3125 234.977 26.9062 234.977C27.4531 234.977 27.8906 234.867 28.2188 234.648C28.5521 234.424 28.7188 234.128 28.7188 233.758ZM35.6641 231.703C35.6641 230.406 35.9714 229.365 36.5859 228.578C37.2005 227.786 38.0052 227.391 39 227.391C39.9896 227.391 40.7734 227.729 41.3516 228.406V224H42.7969V236H41.4688L41.3984 235.094C40.8203 235.802 40.0156 236.156 38.9844 236.156C38.0052 236.156 37.2057 235.755 36.5859 234.953C35.9714 234.151 35.6641 233.104 35.6641 231.812V231.703ZM37.1094 231.867C37.1094 232.826 37.3073 233.576 37.7031 234.117C38.099 234.659 38.6458 234.93 39.3438 234.93C40.2604 234.93 40.9297 234.518 41.3516 233.695V229.812C40.9193 229.016 40.2552 228.617 39.3594 228.617C38.651 228.617 38.099 228.891 37.7031 229.438C37.3073 229.984 37.1094 230.794 37.1094 231.867ZM48.5547 236.156C47.4089 236.156 46.4766 235.781 45.7578 235.031C45.0391 234.276 44.6797 233.268 44.6797 232.008V231.742C44.6797 230.904 44.8385 230.156 45.1562 229.5C45.4792 228.839 45.9271 228.323 46.5 227.953C47.0781 227.578 47.7031 227.391 48.375 227.391C49.474 227.391 50.3281 227.753 50.9375 228.477C51.5469 229.201 51.8516 230.237 51.8516 231.586V232.188H46.125C46.1458 233.021 46.388 233.695 46.8516 234.211C47.3203 234.721 47.9141 234.977 48.6328 234.977C49.1432 234.977 49.5755 234.872 49.9297 234.664C50.2839 234.456 50.5938 234.18 50.8594 233.836L51.7422 234.523C51.0339 235.612 49.9714 236.156 48.5547 236.156ZM48.375 228.578C47.7917 228.578 47.3021 228.792 46.9062 229.219C46.5104 229.641 46.2656 230.234 46.1719 231H50.4062V230.891C50.3646 230.156 50.1667 229.589 49.8125 229.188C49.4583 228.781 48.9792 228.578 48.375 228.578ZM55.1016 236H53.6562V224H55.1016V236ZM58.9922 236H57.5469V227.547H58.9922V236ZM57.4297 225.305C57.4297 225.07 57.5 224.872 57.6406 224.711C57.7865 224.549 58 224.469 58.2812 224.469C58.5625 224.469 58.776 224.549 58.9219 224.711C59.0677 224.872 59.1406 225.07 59.1406 225.305C59.1406 225.539 59.0677 225.734 58.9219 225.891C58.776 226.047 58.5625 226.125 58.2812 226.125C58 226.125 57.7865 226.047 57.6406 225.891C57.5 225.734 57.4297 225.539 57.4297 225.305ZM64.7031 234.977C65.2188 234.977 65.6693 234.82 66.0547 234.508C66.4401 234.195 66.6536 233.805 66.6953 233.336H68.0625C68.0365 233.82 67.8698 234.281 67.5625 234.719C67.2552 235.156 66.8438 235.505 66.3281 235.766C65.8177 236.026 65.276 236.156 64.7031 236.156C63.5521 236.156 62.6354 235.773 61.9531 235.008C61.276 234.237 60.9375 233.185 60.9375 231.852V231.609C60.9375 230.786 61.0885 230.055 61.3906 229.414C61.6927 228.773 62.125 228.276 62.6875 227.922C63.2552 227.568 63.9245 227.391 64.6953 227.391C65.6432 227.391 66.4297 227.674 67.0547 228.242C67.6849 228.81 68.0208 229.547 68.0625 230.453H66.6953C66.6536 229.906 66.4453 229.458 66.0703 229.109C65.7005 228.755 65.2422 228.578 64.6953 228.578C63.9609 228.578 63.3906 228.844 62.9844 229.375C62.5833 229.901 62.3828 230.664 62.3828 231.664V231.938C62.3828 232.911 62.5833 233.661 62.9844 234.188C63.3854 234.714 63.9583 234.977 64.7031 234.977ZM71.2578 236H69.8125V227.547H71.2578V236ZM69.6953 225.305C69.6953 225.07 69.7656 224.872 69.9062 224.711C70.0521 224.549 70.2656 224.469 70.5469 224.469C70.8281 224.469 71.0417 224.549 71.1875 224.711C71.3333 224.872 71.4062 225.07 71.4062 225.305C71.4062 225.539 71.3333 225.734 71.1875 225.891C71.0417 226.047 70.8281 226.125 70.5469 226.125C70.2656 226.125 70.0521 226.047 69.9062 225.891C69.7656 225.734 69.6953 225.539 69.6953 225.305ZM73.1953 231.695C73.1953 230.867 73.3568 230.122 73.6797 229.461C74.0078 228.799 74.4609 228.289 75.0391 227.93C75.6224 227.57 76.2865 227.391 77.0312 227.391C78.1823 227.391 79.112 227.789 79.8203 228.586C80.5339 229.383 80.8906 230.443 80.8906 231.766V231.867C80.8906 232.69 80.7318 233.43 80.4141 234.086C80.1016 234.737 79.651 235.245 79.0625 235.609C78.4792 235.974 77.8073 236.156 77.0469 236.156C75.901 236.156 74.9714 235.758 74.2578 234.961C73.5495 234.164 73.1953 233.109 73.1953 231.797V231.695ZM74.6484 231.867C74.6484 232.805 74.8646 233.557 75.2969 234.125C75.7344 234.693 76.3177 234.977 77.0469 234.977C77.7812 234.977 78.3646 234.69 78.7969 234.117C79.2292 233.539 79.4453 232.732 79.4453 231.695C79.4453 230.768 79.224 230.018 78.7812 229.445C78.3438 228.867 77.7604 228.578 77.0312 228.578C76.3177 228.578 75.7422 228.862 75.3047 229.43C74.8672 229.997 74.6484 230.81 74.6484 231.867ZM87.9219 235.164C87.3594 235.826 86.5339 236.156 85.4453 236.156C84.5443 236.156 83.8568 235.896 83.3828 235.375C82.9141 234.849 82.6771 234.073 82.6719 233.047V227.547H84.1172V233.008C84.1172 234.289 84.638 234.93 85.6797 234.93C86.7839 234.93 87.5182 234.518 87.8828 233.695V227.547H89.3281V236H87.9531L87.9219 235.164ZM96.4531 233.758C96.4531 233.367 96.3047 233.065 96.0078 232.852C95.7161 232.633 95.2031 232.445 94.4688 232.289C93.7396 232.133 93.1589 231.945 92.7266 231.727C92.2995 231.508 91.9818 231.247 91.7734 230.945C91.5703 230.643 91.4688 230.284 91.4688 229.867C91.4688 229.174 91.7604 228.589 92.3438 228.109C92.9323 227.63 93.6823 227.391 94.5938 227.391C95.5521 227.391 96.3281 227.638 96.9219 228.133C97.5208 228.628 97.8203 229.26 97.8203 230.031H96.3672C96.3672 229.635 96.1979 229.294 95.8594 229.008C95.526 228.721 95.1042 228.578 94.5938 228.578C94.0677 228.578 93.6562 228.693 93.3594 228.922C93.0625 229.151 92.9141 229.451 92.9141 229.82C92.9141 230.169 93.0521 230.432 93.3281 230.609C93.6042 230.786 94.1016 230.956 94.8203 231.117C95.5443 231.279 96.1302 231.471 96.5781 231.695C97.026 231.919 97.3568 232.19 97.5703 232.508C97.7891 232.82 97.8984 233.203 97.8984 233.656C97.8984 234.411 97.5964 235.018 96.9922 235.477C96.388 235.93 95.6042 236.156 94.6406 236.156C93.9635 236.156 93.3646 236.036 92.8438 235.797C92.3229 235.557 91.9141 235.224 91.6172 234.797C91.3255 234.365 91.1797 233.898 91.1797 233.398H92.625C92.651 233.883 92.8438 234.268 93.2031 234.555C93.5677 234.836 94.0469 234.977 94.6406 234.977C95.1875 234.977 95.625 234.867 95.9531 234.648C96.2865 234.424 96.4531 234.128 96.4531 233.758ZM103.398 231.703C103.398 230.406 103.706 229.365 104.32 228.578C104.935 227.786 105.74 227.391 106.734 227.391C107.724 227.391 108.508 227.729 109.086 228.406V224H110.531V236H109.203L109.133 235.094C108.555 235.802 107.75 236.156 106.719 236.156C105.74 236.156 104.94 235.755 104.32 234.953C103.706 234.151 103.398 233.104 103.398 231.812V231.703ZM104.844 231.867C104.844 232.826 105.042 233.576 105.438 234.117C105.833 234.659 106.38 234.93 107.078 234.93C107.995 234.93 108.664 234.518 109.086 233.695V229.812C108.654 229.016 107.99 228.617 107.094 228.617C106.385 228.617 105.833 228.891 105.438 229.438C105.042 229.984 104.844 230.794 104.844 231.867ZM114.352 236H112.906V227.547H114.352V236ZM112.789 225.305C112.789 225.07 112.859 224.872 113 224.711C113.146 224.549 113.359 224.469 113.641 224.469C113.922 224.469 114.135 224.549 114.281 224.711C114.427 224.872 114.5 225.07 114.5 225.305C114.5 225.539 114.427 225.734 114.281 225.891C114.135 226.047 113.922 226.125 113.641 226.125C113.359 226.125 113.146 226.047 113 225.891C112.859 225.734 112.789 225.539 112.789 225.305ZM121.594 233.758C121.594 233.367 121.445 233.065 121.148 232.852C120.857 232.633 120.344 232.445 119.609 232.289C118.88 232.133 118.299 231.945 117.867 231.727C117.44 231.508 117.122 231.247 116.914 230.945C116.711 230.643 116.609 230.284 116.609 229.867C116.609 229.174 116.901 228.589 117.484 228.109C118.073 227.63 118.823 227.391 119.734 227.391C120.693 227.391 121.469 227.638 122.062 228.133C122.661 228.628 122.961 229.26 122.961 230.031H121.508C121.508 229.635 121.339 229.294 121 229.008C120.667 228.721 120.245 228.578 119.734 228.578C119.208 228.578 118.797 228.693 118.5 228.922C118.203 229.151 118.055 229.451 118.055 229.82C118.055 230.169 118.193 230.432 118.469 230.609C118.745 230.786 119.242 230.956 119.961 231.117C120.685 231.279 121.271 231.471 121.719 231.695C122.167 231.919 122.497 232.19 122.711 232.508C122.93 232.82 123.039 233.203 123.039 233.656C123.039 234.411 122.737 235.018 122.133 235.477C121.529 235.93 120.745 236.156 119.781 236.156C119.104 236.156 118.505 236.036 117.984 235.797C117.464 235.557 117.055 235.224 116.758 234.797C116.466 234.365 116.32 233.898 116.32 233.398H117.766C117.792 233.883 117.984 234.268 118.344 234.555C118.708 234.836 119.188 234.977 119.781 234.977C120.328 234.977 120.766 234.867 121.094 234.648C121.427 234.424 121.594 234.128 121.594 233.758ZM126.367 228.57C127.008 227.784 127.841 227.391 128.867 227.391C130.654 227.391 131.555 228.398 131.57 230.414V236H130.125V230.406C130.12 229.797 129.979 229.346 129.703 229.055C129.432 228.763 129.008 228.617 128.43 228.617C127.961 228.617 127.549 228.742 127.195 228.992C126.841 229.242 126.565 229.57 126.367 229.977V236H124.922V224H126.367V228.57Z" fill="#333B41"/>
<path d="M66.3982 97.0545C66.218 96.7136 66.0378 96.4296 65.9177 96.0887C65.0768 94.1572 65.0768 92.6802 65.3771 90.8055C65.6174 89.4421 65.5573 88.7604 65.1368 88.2491C64.6563 87.6811 63.9355 87.6242 62.9144 87.5106H62.7342C62.4338 87.4538 62.1335 87.4538 61.8932 87.4538C59.5506 87.3402 58.2292 87.397 57.6285 88.2491C57.0278 89.0445 57.4483 90.2374 58.2892 91.9417C58.7097 92.7938 58.8899 93.646 59.01 94.2709C57.9889 94.3277 56.7876 94.7821 55.346 95.3502C52.4027 96.4864 48.3782 98.077 43.4528 96.6568C37.6263 95.0094 32.7609 90.6351 30.118 88.2491C28.8566 87.113 28.316 86.6017 27.8955 86.4881C27.2948 86.3176 26.514 86.7153 26.0935 86.9425L25.8532 87.0562C25.5529 87.2834 25.1324 87.6242 24.9522 88.0219C24.5318 89.3285 24.4717 91.7713 25.4928 94.4981C25.1324 94.3277 24.8922 94.2709 24.6519 94.214C24.0512 94.1572 23.3905 94.6117 22.8499 95.123L22.6697 95.2934C22.3694 95.5775 22.009 96.0319 22.009 96.4864C21.8888 98.5883 22.97 101.883 25.5529 104.951H25.4928C24.8922 105.064 24.3516 105.746 23.9912 106.371V106.598C23.811 106.996 23.6308 107.507 23.6908 107.962C24.2915 110.291 26.7542 113.643 30.8988 115.972C33.4216 117.392 37.2659 118.755 42.5518 118.755C44.8944 118.755 47.5373 118.471 50.4205 117.79C57.2681 116.199 63.6352 111.597 66.218 106.201C67.8398 103.019 67.8999 99.8381 66.3982 97.0545ZM26.0334 88.3059C26.0334 88.3059 26.0935 88.2491 26.0935 88.1923C26.2136 88.4196 26.3938 88.7036 26.574 88.9877C28.1358 91.6577 31.5596 97.6794 39.6085 100.69C34.623 99.4972 30.178 97.0545 27.5351 95.5775C27.3549 95.4638 27.1747 95.3502 26.9945 95.2934C25.7331 92.5098 25.5529 89.783 26.0334 88.3059ZM23.1502 96.6C23.1502 96.6 23.1502 96.4864 23.2704 96.3728C23.4506 96.5432 23.7509 96.8841 24.0512 97.1681C26.574 99.8381 32.5206 106.144 43.3927 106.769C43.7531 106.769 44.0534 106.769 44.4138 106.769C45.495 106.769 46.6363 106.655 47.6574 106.428C47.5373 106.485 47.3571 106.485 47.237 106.542C40.4494 108.075 32.9411 106.371 28.9166 105.462C28.2559 105.292 27.7153 105.178 27.2948 105.121C24.2314 102.11 23.0301 98.5883 23.1502 96.6ZM65.257 105.86C62.7942 110.916 56.7876 115.347 50.2403 116.824C33.5418 120.63 25.7331 111.484 24.772 107.735C24.772 107.678 24.772 107.621 24.8321 107.45C25.1324 107.564 25.4928 107.791 25.8532 108.019C29.277 110.007 37.2659 114.608 48.3782 112.052C55.7064 110.405 59.4305 105.064 61.5929 101.145C61.713 100.917 61.653 100.577 61.3526 100.463C61.1124 100.349 60.752 100.406 60.6318 100.69C58.5896 104.383 54.9856 109.496 48.0779 111.086C37.386 113.529 29.6975 109.041 26.3938 107.166C25.9133 106.882 25.5529 106.655 25.2526 106.542C25.4928 106.201 25.7331 105.973 25.8532 105.973C26.1536 105.917 27.415 106.201 28.6163 106.485C31.4995 107.166 36.1847 108.189 41.1702 108.189C43.2125 108.189 45.3749 108.019 47.4172 107.507C52.703 106.314 55.8265 103.303 58.3493 100.236C58.5295 100.009 58.4694 99.6677 58.2292 99.4972C57.9889 99.3268 57.6285 99.3836 57.4483 99.6109C57.208 99.8949 56.9077 100.236 56.6674 100.52C52.4027 104.269 48.0178 105.973 43.3326 105.689C32.9411 105.121 27.1747 99.0428 24.712 96.4296C24.3516 96.0319 24.1113 95.8047 23.871 95.5775C24.1714 95.3502 24.4116 95.2366 24.5318 95.2366C24.8321 95.2934 25.8532 95.8615 26.8744 96.4296C30.3582 98.3611 36.8454 101.94 43.693 102.338C44.0534 102.338 44.3538 102.338 44.7142 102.338C47.1168 102.338 49.1591 101.883 50.9611 101.145H51.0212C51.0812 101.145 51.0812 101.088 51.1413 101.088C53.4238 100.179 55.2258 98.9292 56.7876 97.9066C57.3282 97.5658 57.8087 97.2249 58.2292 96.9409C58.4694 96.7704 58.5295 96.4864 58.4094 96.2592C58.2292 96.0319 57.9288 95.9751 57.6886 96.0887C57.208 96.3728 56.7275 96.7136 56.1869 97.0545C54.6252 98.077 52.8232 99.3268 50.5406 100.179C47.5974 101.031 44.7142 101.088 41.9511 100.293C32.821 97.7362 29.0968 91.2032 27.475 88.4196C27.2348 88.0219 27.1146 87.7379 26.9344 87.5106C27.2348 87.397 27.415 87.3402 27.5351 87.3402C27.7754 87.4538 28.5562 88.1355 29.3371 88.874C31.98 91.26 36.9656 95.7479 43.0323 97.4521C44.534 97.8498 45.9756 98.0202 47.297 98.0202C50.6608 98.0202 53.4238 96.9409 55.6463 96.0887C57.208 95.4638 58.5295 94.9526 59.4305 95.123H59.4906H59.5506C59.5506 95.123 59.5506 95.123 59.6107 95.123C59.6708 95.123 59.6708 95.123 59.7308 95.0662C59.7308 95.0662 59.7909 95.0662 59.7909 95.0094C59.851 95.0094 59.851 94.9526 59.911 94.9526L59.9711 94.8958C59.9711 94.8958 60.0312 94.8389 60.0312 94.7821C60.0312 94.7253 60.0312 94.7253 60.0912 94.6685C60.0912 94.6685 60.0912 94.6685 60.0912 94.6117V94.5549V94.4981C60.0312 93.8164 59.851 92.453 59.2503 91.2032C58.95 90.5783 58.1691 88.9877 58.5295 88.5332C58.8298 88.0787 60.4516 88.1355 61.8932 88.1923C62.1335 88.1923 62.3738 88.1923 62.614 88.2491H62.7942C63.5751 88.3059 64.1157 88.4196 64.2959 88.59C64.4761 88.8172 64.4761 89.3853 64.356 90.3511C63.9956 92.3394 63.9956 94.0436 64.9566 96.2023C65.0768 96.5432 65.257 96.8841 65.4372 97.2249C66.7586 100.009 66.6986 102.849 65.257 105.86Z" fill="#333B41" stroke="#333B41" stroke-width="0.7"/>
<path d="M63.6964 104.894C63.4561 104.78 63.0957 104.894 62.9756 105.121C60.6931 109.779 55.1069 113.87 49.0401 115.233C48.7398 115.29 48.5596 115.574 48.6197 115.858C48.6797 116.085 48.92 116.256 49.1603 116.256C49.2203 116.256 49.2203 116.256 49.2804 116.256C55.7075 114.835 61.5941 110.518 63.9967 105.576C64.1169 105.348 63.9967 105.064 63.6964 104.894Z" fill="#333B41" stroke="#333B41" stroke-width="0.7"/>
<path d="M89.6255 48.0077C86.4284 47.9054 83.2819 48.8276 80.6419 50.6407C78.0019 52.4539 76.0055 55.0638 74.9418 58.0923C74.8919 58.2345 74.8049 58.3607 74.6898 58.4576C74.5748 58.5545 74.4359 58.6186 74.2877 58.6433C72.6668 58.9186 71.1971 59.7659 70.1431 61.0324C69.0891 62.299 68.5201 63.9018 68.5385 65.552C68.5569 67.2023 69.1616 68.7917 70.2436 70.0342C71.3256 71.2767 72.8139 72.0909 74.4405 72.3297C74.6026 72.3535 74.7543 72.4244 74.8767 72.5337C74.9991 72.643 75.087 72.7858 75.1294 72.9447C75.9252 75.9208 77.6403 78.5671 80.0282 80.5033C82.416 82.4395 85.3538 83.5659 88.4193 83.7209C87.7502 86.1745 87.3446 88.693 87.2096 91.2333L82.1491 90.4302C81.0822 90.2608 79.992 90.5238 79.1183 91.1613C78.2446 91.7988 77.6589 92.7585 77.4901 93.8296C77.3213 94.9006 77.5832 95.995 78.2181 96.8722C78.8531 97.7494 79.8091 98.3373 80.8759 98.5068L87.7495 99.5969C87.9445 100.666 88.1882 101.725 88.4796 102.771C86.9155 104.479 86.0475 106.715 86.0477 109.035V110.481C86.0475 110.705 85.9592 110.919 85.802 111.076C85.6449 111.234 85.4318 111.323 85.2096 111.323H84.7079C84.1132 111.323 83.5241 111.44 82.9745 111.668C82.4249 111.897 81.9255 112.231 81.5047 112.653C81.084 113.075 80.7503 113.577 80.5225 114.128C80.2948 114.68 80.1775 115.271 80.1775 115.868V117.054C80.1775 117.389 80.2434 117.721 80.3712 118.03C80.4991 118.34 80.6864 118.621 80.9226 118.858C81.1588 119.094 81.4391 119.282 81.7476 119.41C82.0561 119.538 82.3866 119.604 82.7204 119.603H114.923C119.252 119.604 123.532 118.686 127.483 116.91C131.434 115.133 134.966 112.539 137.848 109.296C142.41 104.704 145.459 98.8179 146.582 92.4318C147.273 86.885 145.773 81.2873 142.404 76.8364C139.774 73.4476 136.2 70.9195 132.137 69.5725C129.33 68.7241 126.327 68.7963 123.564 69.7788C120.801 70.7613 118.423 72.6028 116.774 75.0356C116.46 75.4967 116.241 76.0152 116.127 76.5616C116.014 77.108 116.008 77.6713 116.112 78.2197C116.215 78.7681 116.426 79.2906 116.73 79.7574C117.035 80.2241 117.429 80.6261 117.888 80.94C118.348 81.254 118.865 81.4738 119.409 81.5871C119.953 81.7004 120.515 81.7049 121.061 81.6003C121.607 81.4957 122.127 81.2839 122.592 80.9773C123.056 80.6707 123.456 80.2752 123.768 79.8134C124.395 78.8884 125.296 78.1847 126.343 77.8015C127.39 77.4183 128.53 77.3751 129.603 77.678C132.011 78.5014 134.128 80.0083 135.699 82.0159C137.667 84.637 138.567 87.9127 138.214 91.1761C137.343 95.8459 135.066 100.135 131.689 103.463C128.458 107.178 124.093 109.715 119.276 110.679C119.236 110.687 119.195 110.685 119.157 110.672C119.118 110.66 119.083 110.639 119.055 110.609C119.027 110.58 119.007 110.545 118.996 110.506C118.985 110.467 118.984 110.425 118.993 110.386C120.479 104.132 120.056 97.5742 117.78 91.5647C116.615 87.7952 114.669 84.3154 112.072 81.3527C109.474 78.39 106.283 76.0115 102.706 74.3725C102.884 73.9048 103.037 73.4281 103.166 72.9445C103.209 72.7856 103.297 72.6428 103.419 72.5335C103.542 72.4242 103.693 72.3533 103.855 72.3295C105.482 72.0903 106.97 71.276 108.052 70.0332C109.133 68.7904 109.738 67.2007 109.756 65.5504C109.774 63.9001 109.204 62.2977 108.15 61.0314C107.096 59.7651 105.626 58.9181 104.005 58.6431C103.857 58.6184 103.718 58.5543 103.603 58.4574C103.488 58.3605 103.401 58.2343 103.351 58.0921C102.342 55.2186 100.491 52.7183 98.0422 50.9188C95.5931 49.1193 92.6589 48.1046 89.6255 48.0077ZM88.6825 49.1136C91.6461 49.0181 94.5631 49.8727 97.0103 51.5536C99.4575 53.2344 101.308 55.6542 102.293 58.4619C102.409 58.7905 102.61 59.082 102.875 59.3062C103.141 59.5304 103.462 59.6791 103.804 59.7368C105.165 59.9681 106.399 60.6794 107.284 61.7425C108.169 62.8057 108.647 64.151 108.632 65.5364C108.617 66.9218 108.11 68.2565 107.203 69.3002C106.295 70.344 105.046 71.0284 103.681 71.2302C103.305 71.2852 102.954 71.4494 102.67 71.7026C102.386 71.9558 102.182 72.2868 102.084 72.6549C101.664 74.2271 100.964 75.7098 100.017 77.0311C100.145 74.4422 99.252 71.9069 97.531 69.9745C97.5115 69.948 97.4975 69.9177 97.4899 69.8856C97.4823 69.8535 97.4813 69.8203 97.4869 69.7878C97.4925 69.7554 97.5047 69.7243 97.5226 69.6967C97.5405 69.669 97.5638 69.6454 97.5912 69.6271C98.9577 68.4524 99.8346 66.8048 100.048 65.0114C100.261 63.2179 99.7944 61.4095 98.7413 59.9451C97.6882 58.4806 96.1253 57.4673 94.3626 57.1058C92.5999 56.7442 90.7662 57.0611 89.2254 57.9935C89.0021 58.1284 88.7463 58.1997 88.4856 58.1997C88.225 58.1997 87.9692 58.1284 87.7459 57.9935H87.7296C86.1888 57.0648 84.3569 56.7507 82.5964 57.1136C80.836 57.4765 79.2755 58.4899 78.2238 59.9529C77.1722 61.4159 76.7061 63.222 76.9178 65.0136C77.1295 66.8052 78.0037 68.4517 79.3671 69.6271C79.3901 69.6497 79.4084 69.6767 79.4208 69.7065C79.4333 69.7364 79.4397 69.7685 79.4397 69.8008C79.4397 69.8331 79.4333 69.865 79.4208 69.8949C79.4084 69.9247 79.3901 69.9519 79.3671 69.9745C78.1303 71.3661 77.3123 73.0814 77.0082 74.9212C76.6638 74.1923 76.3855 73.4338 76.1764 72.6549C76.0781 72.2873 75.8749 71.9566 75.5917 71.7034C75.3085 71.4503 74.9578 71.2858 74.5827 71.2302C73.2173 71.0284 71.9685 70.344 71.0609 69.3002C70.1532 68.2565 69.6464 66.9218 69.6315 65.5364C69.6166 64.151 70.0946 62.8057 70.9796 61.7425C71.8646 60.6794 73.0985 59.9681 74.4592 59.7368C74.8009 59.6785 75.121 59.5298 75.3861 59.3056C75.6513 59.0814 75.8519 58.7901 75.9672 58.4619C76.9016 55.7989 78.6156 53.4815 80.8845 51.8133C83.1535 50.1451 85.8716 49.2041 88.6825 49.1136ZM83.8154 58.0698C83.9709 58.0638 84.1266 58.0638 84.2821 58.0698C85.2973 58.1137 86.2853 58.413 87.1553 58.9401C87.5507 59.1789 88.0035 59.305 88.4649 59.305C88.9264 59.305 89.3791 59.1789 89.7745 58.9401C91.078 58.1551 92.6276 57.89 94.1165 58.1975C95.6054 58.5049 96.925 59.3623 97.8141 60.6C98.7033 61.8377 99.097 63.3655 98.9176 64.8809C98.7381 66.3962 97.9984 67.7887 96.8449 68.7826C96.7094 68.9003 96.5986 69.0438 96.519 69.205C96.4394 69.3661 96.3927 69.5418 96.3815 69.7214C96.3703 69.9009 96.3949 70.0808 96.4538 70.2507C96.5127 70.4206 96.6048 70.577 96.7246 70.7107C97.6682 71.7702 98.3403 73.0445 98.6827 74.4235C99.0252 75.8025 99.0276 77.2446 98.6899 78.6247C97.2914 80.0463 95.5952 81.1377 93.7245 81.8195C91.8538 82.5013 89.8553 82.7566 87.8741 82.5668C85.8929 82.377 83.9786 81.7468 82.2701 80.7221C80.5616 79.6974 79.1016 78.3037 77.9962 76.6423C77.9703 74.4565 78.761 72.3403 80.2122 70.7107C80.3315 70.5764 80.4229 70.4195 80.481 70.2493C80.5391 70.079 80.5628 69.8987 80.5507 69.7191C80.5386 69.5395 80.4909 69.3643 80.4105 69.2035C80.33 69.0427 80.2184 68.8996 80.0822 68.7826C79.1527 67.9856 78.4848 66.9251 78.1661 65.7404C77.8473 64.5557 77.8925 63.3019 78.2958 62.1434C78.6991 60.985 79.4416 59.9758 80.4261 59.2484C81.4105 58.5209 82.591 58.109 83.8126 58.0668L83.8154 58.0698ZM128.06 70.0955C129.33 70.0845 130.593 70.265 131.81 70.6311C135.656 71.9112 139.037 74.3068 141.528 77.5156C144.714 81.7258 146.137 87.0187 145.493 92.2665C144.402 98.4294 141.453 104.108 137.045 108.534C134.266 111.667 130.859 114.174 127.047 115.891C123.235 117.608 119.104 118.495 114.926 118.495H82.7233C82.5346 118.495 82.3477 118.458 82.1732 118.386C81.9987 118.314 81.8401 118.208 81.7065 118.074C81.5729 117.94 81.4669 117.781 81.3946 117.606C81.3223 117.431 81.2851 117.243 81.2851 117.054V115.868C81.2851 115.417 81.3737 114.97 81.5459 114.553C81.7181 114.136 81.9705 113.757 82.2886 113.438C82.6068 113.119 82.9844 112.866 83.4 112.693C83.8156 112.521 84.261 112.432 84.7107 112.432H85.2123C85.4677 112.433 85.7207 112.383 85.9567 112.285C86.1928 112.187 86.4073 112.043 86.588 111.862C86.7688 111.681 86.9122 111.466 87.0101 111.229C87.108 110.992 87.1584 110.738 87.1586 110.482V109.035C87.208 106.909 88.0839 104.887 89.5992 103.4C91.1144 101.914 93.1487 101.082 95.2671 101.082C97.3854 101.082 99.4197 101.914 100.935 103.4C102.45 104.887 103.326 106.909 103.376 109.035V111.511C103.38 111.656 103.44 111.792 103.543 111.893C103.646 111.994 103.784 112.05 103.928 112.05C104.072 112.05 104.21 111.994 104.313 111.893C104.416 111.792 104.476 111.656 104.48 111.511V109.035C104.481 107.414 104.057 105.822 103.252 104.418C102.447 103.013 101.289 101.845 99.8929 101.032C100.743 100.83 101.544 100.459 102.249 99.9412C102.953 99.4229 103.546 98.7677 103.994 98.0145C104.441 97.2614 104.733 96.4256 104.852 95.557C104.971 94.6884 104.915 93.8045 104.687 92.9581C104.096 90.7654 103.279 88.6405 102.249 86.6184C102.182 86.4874 102.066 86.3885 101.926 86.3434C101.786 86.2984 101.634 86.3108 101.504 86.378C101.373 86.4453 101.275 86.5618 101.23 86.702C101.185 86.8422 101.197 86.9947 101.264 87.1258C102.259 89.0788 103.047 91.1307 103.617 93.2483C103.852 94.1227 103.866 95.0424 103.657 95.9236C103.448 96.8047 103.023 97.6195 102.42 98.2936C101.818 98.9677 101.057 99.4797 100.207 99.7831C99.3565 100.087 98.4443 100.172 97.553 100.031L81.0533 97.411C80.2784 97.2851 79.5849 96.8558 79.1245 96.2175C78.6642 95.5792 78.4746 94.7839 78.5972 94.0055C78.7198 93.2272 79.1447 92.5293 79.7788 92.0648C80.4129 91.6003 81.2046 91.407 81.9803 91.5272L94.683 93.5449C94.8271 93.5663 94.9739 93.5297 95.0913 93.443C95.2088 93.3563 95.2873 93.2266 95.3099 93.082C95.3325 92.9375 95.2974 92.7898 95.2121 92.6712C95.1268 92.5525 94.9982 92.4725 94.8544 92.4485L88.3111 91.4095C88.4398 88.8119 88.8605 86.2371 89.5652 83.7343C92.244 83.6572 94.8493 82.8371 97.0925 81.3648C99.3356 79.8926 101.129 77.8257 102.274 75.3932C105.709 76.971 108.773 79.2594 111.265 82.1085C113.758 84.9575 115.623 88.3029 116.739 91.9257C118.946 97.7362 119.357 104.079 117.92 110.128C117.867 110.349 117.871 110.58 117.93 110.799C117.99 111.018 118.103 111.218 118.26 111.382C118.417 111.545 118.612 111.666 118.828 111.734C119.043 111.802 119.273 111.814 119.494 111.77C124.538 110.76 129.109 108.109 132.499 104.226C136.029 100.731 138.406 96.2332 139.309 91.3391C139.705 87.7784 138.728 84.2006 136.578 81.3408C134.868 79.1508 132.559 77.5091 129.933 76.617C128.634 76.2446 127.252 76.2929 125.982 76.7547C124.712 77.2164 123.62 78.0684 122.86 79.1893C122.629 79.5301 122.333 79.8217 121.99 80.0478C121.647 80.2739 121.262 80.43 120.859 80.507C120.456 80.584 120.041 80.5803 119.639 80.4965C119.237 80.4126 118.856 80.2501 118.516 80.0182C118.177 79.7863 117.886 79.4895 117.661 79.1449C117.436 78.8002 117.281 78.4145 117.204 78.0096C117.127 77.6046 117.131 77.1885 117.215 76.7849C117.298 76.3814 117.46 75.9983 117.691 75.6576C118.843 73.9586 120.388 72.5652 122.194 71.5966C124 70.628 126.013 70.1127 128.06 70.0955ZM88.9143 99.7819L92.213 100.305C91.1876 100.667 90.2341 101.209 89.3968 101.905C89.2148 101.202 89.0549 100.494 88.9174 99.7819H88.9143Z" fill="#333B41" stroke="#333B41" stroke-width="0.7"/>
<path d="M93.0679 61.6307C92.4493 61.6418 91.8601 61.898 91.4289 62.3434C90.9977 62.7889 90.7594 63.3874 90.766 64.0085C90.766 64.6328 91.013 65.2313 91.4527 65.6728C91.8924 66.1142 92.4888 66.3623 93.1107 66.3623C93.7325 66.3623 94.3289 66.1142 94.7686 65.6728C95.2083 65.2313 95.4553 64.6328 95.4553 64.0085C95.4586 63.6937 95.399 63.3814 95.28 63.0901C95.161 62.7989 94.9849 62.5345 94.7623 62.3127C94.5397 62.091 94.275 61.9164 93.984 61.7992C93.6929 61.682 93.3814 61.6248 93.0679 61.6307ZM93.0874 62.7526C93.2532 62.7492 93.4179 62.7793 93.5719 62.8411C93.7259 62.9029 93.866 62.995 93.9838 63.1122C94.1016 63.2293 94.1949 63.369 94.2579 63.523C94.321 63.6769 94.3526 63.842 94.3509 64.0085C94.351 64.172 94.319 64.3339 94.2567 64.485C94.1944 64.6361 94.1031 64.7734 93.988 64.889C93.8728 65.0046 93.7361 65.0963 93.5857 65.1588C93.4352 65.2214 93.274 65.2537 93.1111 65.2537C92.9483 65.2537 92.787 65.2214 92.6365 65.1588C92.4861 65.0963 92.3494 65.0046 92.2343 64.889C92.1191 64.7734 92.0278 64.6361 91.9655 64.485C91.9033 64.3339 91.8713 64.172 91.8713 64.0085C91.868 63.6805 91.994 63.3643 92.2217 63.129C92.4495 62.8938 92.7607 62.7586 93.0874 62.7526V62.7526Z" fill="#333B41" stroke="#333B41" stroke-width="0.7"/>
<path d="M83.7849 61.6306C83.1663 61.6418 82.5772 61.8979 82.146 62.3434C81.7148 62.7888 81.4765 63.3874 81.4831 64.0084C81.4742 64.323 81.5283 64.6359 81.642 64.9291C81.7558 65.2223 81.9269 65.4897 82.1454 65.7153C82.3638 65.9409 82.6251 66.1202 82.9138 66.2426C83.2025 66.3651 83.5127 66.4283 83.8261 66.4283C84.1395 66.4283 84.4498 66.3651 84.7385 66.2426C85.0272 66.1202 85.2885 65.9409 85.5069 65.7153C85.7253 65.4897 85.8965 65.2223 86.0103 64.9291C86.124 64.6359 86.1781 64.323 86.1692 64.0084C86.1725 63.6939 86.113 63.3819 85.9941 63.0909C85.8753 62.7999 85.6996 62.5356 85.4773 62.3139C85.255 62.0922 84.9907 61.9176 84.7 61.8002C84.4093 61.6828 84.0981 61.6252 83.7849 61.6306V61.6306ZM83.8043 62.7525C83.9699 62.7496 84.1343 62.7799 84.2879 62.8419C84.4416 62.9038 84.5812 62.996 84.6988 63.1131C84.8163 63.2302 84.9092 63.3698 84.9721 63.5235C85.0349 63.6773 85.0664 63.8422 85.0648 64.0084C85.069 64.1744 85.0401 64.3394 84.9798 64.494C84.9195 64.6485 84.8289 64.7894 84.7135 64.9083C84.5981 65.0272 84.4602 65.1214 84.3079 65.1859C84.1555 65.2504 83.9919 65.2837 83.8265 65.2837C83.6612 65.2837 83.4975 65.2504 83.3452 65.1859C83.1929 65.1214 83.0549 65.0272 82.9395 64.9083C82.8241 64.7894 82.7336 64.6485 82.6733 64.494C82.6129 64.3394 82.5841 64.1744 82.5883 64.0084C82.585 63.6804 82.7109 63.3642 82.9387 63.129C83.1665 62.8937 83.4776 62.7585 83.8043 62.7525V62.7525Z" fill="#333B41" stroke="#333B41" stroke-width="0.7"/>
<path d="M84.4982 75.8265C84.947 76.4644 85.5418 76.9848 86.2326 77.344C86.9233 77.7032 87.6899 77.8909 88.4679 77.8909C89.2459 77.8909 90.0125 77.7032 90.7032 77.344C91.394 76.9848 91.9888 76.4644 92.4377 75.8265C92.5198 75.7062 92.5514 75.5582 92.5257 75.4146C92.5 75.2711 92.4191 75.1435 92.3004 75.0594C92.1818 74.9753 92.0349 74.9416 91.8915 74.9653C91.7482 74.9891 91.62 75.0684 91.5345 75.1864C91.1878 75.6791 90.7283 76.0813 90.1947 76.3587C89.661 76.6362 89.0689 76.7809 88.4679 76.7809C87.867 76.7809 87.2748 76.6362 86.7412 76.3587C86.2075 76.0813 85.748 75.6791 85.4013 75.1864C85.3158 75.0684 85.1876 74.9891 85.0443 74.9653C84.9009 74.9415 84.754 74.9753 84.6354 75.0594C84.5167 75.1435 84.4358 75.2711 84.4101 75.4146C84.3844 75.5582 84.416 75.7062 84.4982 75.8265V75.8265Z" fill="#333B41" stroke="#333B41" stroke-width="0.7"/>
</g>
<defs>
<linearGradient id="paint0_linear_126_44" x1="-7.44304" y1="24.8889" x2="195.1" y2="114.913" gradientUnits="userSpaceOnUse">
<stop stop-color="#F9804B"/>
<stop offset="1" stop-color="#FE9013"/>
</linearGradient>
<clipPath id="clip0_126_44">
<rect width="168" height="244" rx="5" fill="white"/>
</clipPath>
</defs>
</svg>
